<?xml version="1.0" ?><!DOCTYPE svg  PUBLIC '-//W3C//DTD SVG 1.1//EN'  'http://www.w3.org/Graphics/SVG/1.1/DTD/svg11.dtd'><svg height="512px" style="enable-background:new 0 0 512 512;" version="1.1" viewBox="0 0 512 512" width="512px" xml:space="preserve" xmlns="http://www.w3.org/2000/svg" xmlns:xlink="http://www.w3.org/1999/xlink"><g id="_x33_5-spotify"><g><g><path d="M494.604,256c0,132.131-106.83,239.25-238.602,239.25C124.22,495.25,17.397,388.131,17.397,256     c0-132.135,106.823-239.25,238.605-239.25C387.773,16.75,494.604,123.865,494.604,256L494.604,256z M494.604,256" style="fill:#9CDB53;"/><path d="M353.26,368.476c-2.979,0-5.965-0.866-8.563-2.717c-55.922-39.424-148.941-41.607-211.753-26.922     c-7.964,1.885-16.05-3.14-17.901-11.184c-1.847-8.045,3.104-16.094,11.161-17.972c69.042-16.031,172.238-13.102,235.619,31.612     c6.768,4.753,8.346,14.082,3.637,20.813C362.533,366.263,357.943,368.476,353.26,368.476L353.26,368.476z M353.26,368.476" style="fill:#516874;"/><path d="M382.432,309.978c-3.047,0-6.055-0.896-8.709-2.81c-64.842-46.684-144.535-58.288-250.894-36.515     c-8.021,1.584-15.956-3.559-17.597-11.663c-1.669-8.072,3.549-15.998,11.605-17.644     c115.032-23.536,202.188-10.382,274.299,41.509c6.68,4.813,8.203,14.174,3.398,20.873     C391.646,307.797,387.082,309.978,382.432,309.978L382.432,309.978z M382.432,309.978" style="fill:#516874;"/><path d="M411.625,231.959c-2.887,0-5.811-0.845-8.377-2.579c-82.227-55.95-207.225-56.223-288.139-27.513     c-7.758,2.696-16.29-1.343-19.037-9.152c-2.742-7.772,1.317-16.327,9.099-19.079c88.017-31.191,224.41-30.528,314.869,30.985     c6.824,4.641,8.555,13.935,3.965,20.757C421.084,229.652,416.375,231.959,411.625,231.959L411.625,231.959z M411.625,231.959" style="fill:#516874;"/></g></g></g><g id="Layer_1"/></svg>